<svg xmlns="http://www.w3.org/2000/svg" xmlns:xlink="http://www.w3.org/1999/xlink" version="1.1" id="Layer_1" x="0px" y="0px" viewBox="0 0 512 512" style="width: 200px; height: 200px; transform-origin: 50% 50%; transform: scaleX(1) scaleY(1) rotate(0deg);" xml:space="preserve" preserveAspectRatio="xMidYMid meet">
<circle style="fill:#0CCDFF" cx="256" cy="256" r="256"/>
<path style="fill:#2660FF" d="M283.633,510.49c126.392-13.571,225.18-119.112,228.214-248.379l-131.287-131.29l-0.038-0.038  l-21.064-21.064h-5.156v13.898l-4.39-4.388h-5.197v13.857l-4.311-4.314h-5.189v21.097l-8.635,8.596  c-20.772-19.492-48.64-31.414-79.25-31.414c-63.926,0-115.894,51.971-115.894,115.894c0,29.443,11.041,56.356,29.217,76.836  l9.841,9.838l23.885,23.88l9.265,9.262l-28.214,39.521L283.633,510.49z"/>
<g>
	<polygon style="fill:#34495E;" points="195.277,402.286 219.116,340.677 201.894,333.998 175.427,402.286  "/>
	<polygon style="fill:#34495E;" points="319.191,402.286 292.78,333.998 275.489,340.677 299.318,402.286  "/>
</g>
<path style="fill:#D1F1FF" d="M247.337,358.825c-63.928,0-115.886-51.986-115.886-115.876c0-63.931,51.955-115.891,115.886-115.891  c63.859,0,115.886,51.96,115.886,115.891C363.223,306.839,311.199,358.825,247.337,358.825z"/>
<path style="fill:#FF8E31;" d="M247.337,320.197c-42.634,0-77.266-34.665-77.266-77.248c0-42.616,34.629-77.268,77.266-77.268  c42.573,0,77.258,34.652,77.258,77.268C324.595,285.532,289.91,320.197,247.337,320.197z"/>
<path style="fill:#FFFFFF;" d="M247.337,281.569c-21.292,0-38.638-17.339-38.638-38.62c0-21.335,17.347-38.633,38.638-38.633  c21.297,0,38.615,17.298,38.615,38.633C285.952,264.23,268.636,281.569,247.337,281.569z"/>
<path style="fill:#C9C9C9;" d="M277.094,267.52c-1.539,1.894-3.277,3.635-5.174,5.197l-27.185-27.187l5.171-5.197L277.094,267.52z"/>
<path style="fill:#C97127;" d="M304.486,294.861c-1.664,1.818-3.405,3.561-5.222,5.222l-27.341-27.366  c1.894-1.562,3.635-3.302,5.174-5.197L304.486,294.861z"/>
<path style="fill:#055C83;" d="M331.802,322.176c-0.845,0.899-1.715,1.792-2.588,2.691c-0.484,0.484-0.973,0.973-1.457,1.434  c-0.384,0.358-0.796,0.742-1.206,1.101l-27.287-27.318c1.818-1.661,3.558-3.405,5.222-5.222L331.802,322.176z"/>
<g>
	<polygon style="fill:#FF8E31;" points="380.547,135.987 354.289,135.987 354.289,109.714 359.455,109.714 359.455,130.79    380.547,130.79  "/>
	<polygon style="fill:#FF8E31;" points="370.998,145.518 344.732,145.518 344.732,119.245 349.901,119.245 349.901,140.321    370.998,140.321  "/>
	<polygon style="fill:#FF8E31;" points="361.49,155.046 335.227,155.046 335.227,128.773 340.388,128.773 340.388,149.865    361.49,149.865  "/>
</g>
<path style="fill:#34495E;" d="M364.411,120.676L244.744,240.325c-1.475,1.436-1.475,3.776,0,5.215c1.426,1.446,3.715,1.446,5.174,0  l119.667-119.67L364.411,120.676z"/>
<g>
</g>
<g>
</g>
<g>
</g>
<g>
</g>
<g>
</g>
<g>
</g>
<g>
</g>
<g>
</g>
<g>
</g>
<g>
</g>
<g>
</g>
<g>
</g>
<g>
</g>
<g>
</g>
<g>
</g>
</svg>