<?xml version="1.0" encoding="UTF-8" standalone="no"?>
<!-- Created with Inkscape (http://www.inkscape.org/) -->

<svg
   width="191.21039mm"
   height="189.95561mm"
   viewBox="0 0 191.21039 189.95561"
   version="1.1"
   id="svg1"
   xml:space="preserve"
   inkscape:export-filename="hookom icon.svg"
   inkscape:export-xdpi="23.910835"
   inkscape:export-ydpi="23.910835"
   sodipodi:docname="hookom icon.svg"
   inkscape:version="1.3.2 (091e20e, 2023-11-25, custom)"
   xmlns:inkscape="http://www.inkscape.org/namespaces/inkscape"
   xmlns:sodipodi="http://sodipodi.sourceforge.net/DTD/sodipodi-0.dtd"
   xmlns:xlink="http://www.w3.org/1999/xlink"
   xmlns="http://www.w3.org/2000/svg"
   xmlns:svg="http://www.w3.org/2000/svg"><sodipodi:namedview
     id="namedview1"
     pagecolor="#ffffff"
     bordercolor="#000000"
     borderopacity="0.25"
     inkscape:showpageshadow="2"
     inkscape:pageopacity="0.0"
     inkscape:pagecheckerboard="0"
     inkscape:deskcolor="#d1d1d1"
     inkscape:document-units="mm"
     showguides="true"
     inkscape:zoom="1.0343421"
     inkscape:cx="306.47501"
     inkscape:cy="301.15762"
     inkscape:window-width="1920"
     inkscape:window-height="1017"
     inkscape:window-x="-8"
     inkscape:window-y="-8"
     inkscape:window-maximized="1"
     inkscape:current-layer="layer1" /><defs
     id="defs1"><linearGradient
       id="linearGradient5"
       inkscape:collect="always"><stop
         style="stop-color:#00f6ff;stop-opacity:1;"
         offset="0"
         id="stop5" /><stop
         style="stop-color:#0060ff;stop-opacity:1;"
         offset="1"
         id="stop6" /></linearGradient><linearGradient
       inkscape:collect="always"
       xlink:href="#linearGradient5"
       id="linearGradient6"
       x1="22.142654"
       y1="148.50986"
       x2="187.92389"
       y2="148.50986"
       gradientUnits="userSpaceOnUse" /></defs><g
     inkscape:label="Vrstva 1"
     inkscape:groupmode="layer"
     id="layer1"
     transform="translate(-9.0532026,-54.598911)"><rect
       style="fill:#f2f2f2;stroke-width:0.77933"
       id="rect1"
       width="191.21039"
       height="189.95563"
       x="9.0532026"
       y="54.598911"
       rx="0" /><circle
       style="fill:#333333;stroke-width:0.496197"
       id="path1"
       cx="104.80294"
       cy="149.89005"
       r="94.417786" /><path
       style="display:inline;fill:url(#linearGradient6);fill-opacity:1"
       d="m 53.631204,184.57486 c -8.328919,-0.83492 -15.11549,-4.10307 -21.669757,-10.43531 -5.237362,-5.05995 -7.999381,-10.69465 -9.436592,-19.25128 l -0.381199,-2.26952 -0.001,-3.31468 c -0.0041,-13.41752 5.505808,-23.95591 16.297608,-31.17135 4.127032,-2.75935 8.292233,-4.39869 13.394245,-5.2717 l 2.931461,-0.50161 9.172635,-0.009 9.172636,-0.009 2.751988,0.51162 c 6.31108,1.17329 12.116701,4.08319 17.451179,8.74691 3.974428,3.47469 8.805312,10.33279 8.869532,12.59151 l 0.0175,0.61706 -0.42887,0.34728 -0.42887,0.34727 h -9.21619 -9.216188 l -0.835534,-0.25146 c -0.459543,-0.1383 -1.660929,-0.815 -2.669747,-1.50377 -2.225116,-1.51921 -4.430682,-2.57701 -6.57854,-3.1551 l -1.607575,-0.43268 -7.659624,0.10062 -7.659623,0.10061 -1.607575,0.41655 c -6.482313,1.67967 -12.411926,7.88686 -13.722371,14.36475 l -0.324004,1.60164 0.0941,2.93739 0.0941,2.9374 0.560774,1.62571 c 2.084091,6.04188 7.877125,10.98334 14.526726,12.3913 l 1.323885,0.28031 5.106416,0.10886 c 10.613659,0.22626 13.405616,-0.34137 18.309407,-3.72243 l 1.959333,-1.35092 1.307783,-0.1645 c 1.319024,-0.16591 16.858967,-0.0691 17.995897,0.11211 1.70266,0.27138 1.15501,2.3654 -1.765163,6.74934 l -1.645059,2.46966 -2.572726,2.58468 c -4.935522,4.95846 -9.615023,7.81771 -15.944327,9.74225 l -2.136772,0.64973 -2.991839,0.38498 -2.99184,0.38499 -7.693808,-0.0217 c -4.772857,-0.0135 -8.627231,-0.11531 -10.152452,-0.26821 z m 83.026536,0.16593 c -6.60083,-0.48165 -13.04665,-3.07103 -18.52664,-7.44241 -6.7791,-5.4077 -12.26262,-14.09453 -9.64885,-15.28544 l 0.48625,-0.22156 h 9.07525 9.07525 l 0.62414,0.26079 c 0.34328,0.14343 1.3831,0.7751 2.31072,1.40371 2.3305,1.57927 4.05248,2.39971 6.2171,2.96212 l 1.84664,0.4798 h 6.22792 c 8.87946,0 11.35288,-0.3397 14.62514,-2.00859 5.09288,-2.59744 8.86412,-6.8153 10.04109,-11.23026 l 0.32772,-1.22933 0.0179,-3.5934 0.0179,-3.5934 -0.3326,-1.20644 c -1.55892,-5.65466 -6.62584,-10.89408 -12.33746,-12.75748 -2.47876,-0.80868 -3.48227,-0.90709 -10.31167,-1.01116 l -6.52913,-0.0995 -1.64439,0.30813 c -2.81975,0.52837 -6.06991,1.92874 -8.24335,3.55173 -0.55403,0.41371 -1.4051,0.93604 -1.89126,1.16073 l -0.88394,0.40852 -9.3456,-0.0459 -9.34561,-0.0459 -0.44169,-0.2894 -0.44169,-0.28941 v -0.66143 c 0,-2.85762 6.62753,-11.49394 11.26999,-14.6859 0.61479,-0.42271 1.76135,-1.21633 2.54791,-1.76362 2.31668,-1.61194 7.24911,-3.78937 10.20117,-4.50333 3.67349,-0.88844 9.54291,-1.25062 18.43983,-1.13785 l 4.53904,0.0575 2.51189,0.37982 c 5.57625,0.84318 10.13533,2.47657 13.41467,4.80611 0.75011,0.53285 2.10361,1.47946 3.00778,2.10358 11.86063,8.18693 17.2408,25.16172 12.83951,40.50954 -3.54693,12.36858 -14.05704,21.73616 -27.35794,24.38393 l -1.57902,0.31433 -9.92914,0.0402 c -5.46103,0.0221 -10.35467,0.009 -10.87477,-0.0288 z M 75.059164,157.90653 c -0.592951,-0.1446 -1.655947,-0.54243 -2.362212,-0.88407 l -1.284119,-0.62118 -1.247921,-1.22932 -1.247922,-1.22932 -0.596932,-1.22933 c -1.306886,-2.6914 -1.300222,-5.51833 0.01962,-8.32156 l 0.578797,-1.22933 1.15717,-1.15869 c 1.224538,-1.22615 2.753952,-2.11632 4.463929,-2.59816 l 1.030308,-0.29032 29.598298,-0.0382 29.59829,-0.0382 1.25768,0.40869 c 2.95753,0.96108 5.20302,3.20474 6.25268,6.24758 l 0.43115,1.24985 -0.0191,1.98583 -0.0191,1.98583 -0.40325,1.0402 c -0.94287,2.43219 -3.13629,4.55786 -5.798,5.61888 l -1.32388,0.52773 -29.50374,0.033 -29.503728,0.033 z"
       id="path2" /></g></svg>
