<?xml version="1.0" encoding="UTF-8" standalone="no"?>
<!-- Created with Inkscape (http://www.inkscape.org/) -->

<svg
   width="191.21039mm"
   height="189.95563mm"
   viewBox="0 0 191.21039 189.95563"
   version="1.1"
   id="svg1"
   xml:space="preserve"
   inkscape:export-filename="icon.svg"
   inkscape:export-xdpi="23.910835"
   inkscape:export-ydpi="23.910835"
   sodipodi:docname="icon.svg"
   inkscape:version="1.3.2 (091e20e, 2023-11-25, custom)"
   xmlns:inkscape="http://www.inkscape.org/namespaces/inkscape"
   xmlns:sodipodi="http://sodipodi.sourceforge.net/DTD/sodipodi-0.dtd"
   xmlns="http://www.w3.org/2000/svg"
   xmlns:svg="http://www.w3.org/2000/svg"><sodipodi:namedview
     id="namedview1"
     pagecolor="#ffffff"
     bordercolor="#000000"
     borderopacity="0.25"
     inkscape:showpageshadow="2"
     inkscape:pageopacity="0.0"
     inkscape:pagecheckerboard="0"
     inkscape:deskcolor="#d1d1d1"
     inkscape:document-units="mm"
     showguides="true"
     inkscape:zoom="0.73139029"
     inkscape:cx="363.69091"
     inkscape:cy="279.60448"
     inkscape:window-width="1920"
     inkscape:window-height="1017"
     inkscape:window-x="-8"
     inkscape:window-y="-8"
     inkscape:window-maximized="1"
     inkscape:current-layer="layer1"
     inkscape:export-bgcolor="#ffffff00" /><defs
     id="defs1" /><g
     inkscape:label="Vrstva 1"
     inkscape:groupmode="layer"
     id="layer1"
     transform="translate(-9.0532026,-54.598911)"><circle
       style="fill:#333333;fill-opacity:1;stroke-width:0.519723"
       id="path1"
       cx="104.73712"
       cy="150.28284"
       r="95.322159" /><path
       style="display:inline;fill:#ffffff;fill-opacity:1;stroke-width:1.04801"
       d="m 51.16357,186.30622 c -8.728762,-0.87501 -15.841133,-4.30005 -22.710047,-10.93627 -5.48879,-5.30286 -8.383404,-11.20807 -9.88961,-20.17547 l -0.3995,-2.37847 -0.001,-3.47381 c -0.0043,-14.06165 5.770123,-25.10595 17.079999,-32.66778 4.325157,-2.89182 8.690315,-4.60985 14.037257,-5.52477 l 3.07219,-0.5257 9.612982,-0.009 9.612982,-0.009 2.884101,0.53618 c 6.614054,1.22962 12.698383,4.27921 18.288951,9.16681 4.165226,3.6415 9.228025,10.82884 9.295335,13.196 l 0.0183,0.64667 -0.44946,0.36396 -0.44946,0.36394 h -9.658628 -9.658626 l -0.875645,-0.26354 c -0.481604,-0.14493 -1.740665,-0.85412 -2.797913,-1.57596 -2.331935,-1.59213 -4.643382,-2.70072 -6.894353,-3.30656 l -1.684748,-0.45345 -8.027336,0.10545 -8.027335,0.10544 -1.684749,0.43655 c -6.793506,1.7603 -13.00778,8.26548 -14.381135,15.05435 l -0.339558,1.67853 0.09862,3.0784 0.09862,3.07842 0.587695,1.70376 c 2.184141,6.33192 8.255279,11.5106 15.224104,12.98616 l 1.387441,0.29377 5.351556,0.11408 c 11.123185,0.23712 14.049174,-0.35776 19.188379,-3.90113 l 2.053393,-1.41577 1.370566,-0.17241 c 1.382345,-0.17387 17.668312,-0.0724 18.859822,0.1175 1.7844,0.28441 1.21045,2.47895 -1.849906,7.07335 l -1.724034,2.58822 -2.696233,2.70876 c -5.172459,5.19651 -10.076607,8.19302 -16.709759,10.20995 l -2.239351,0.68092 -3.135466,0.40346 -3.135468,0.40347 -8.063161,-0.0227 c -5.001986,-0.0142 -9.041395,-0.12085 -10.639837,-0.28109 z m 87.01235,0.1739 c -6.91771,-0.50478 -13.67297,-3.21847 -19.41604,-7.7997 -7.10454,-5.66731 -12.8513,-14.77116 -10.11205,-16.01924 l 0.50959,-0.2322 h 9.51092 9.51092 l 0.65411,0.27331 c 0.35976,0.15032 1.44949,0.81231 2.42164,1.4711 2.44238,1.65509 4.24703,2.51491 6.51556,3.10432 l 1.9353,0.50284 h 6.5269 c 9.30572,0 11.89789,-0.35601 15.32724,-2.10502 5.33737,-2.72214 9.28965,-7.14248 10.52312,-11.76939 l 0.34346,-1.28834 0.0188,-3.76591 0.0188,-3.76591 -0.34857,-1.26435 c -1.63376,-5.92613 -6.94392,-11.41707 -12.92974,-13.36993 -2.59775,-0.8475 -3.64944,-0.95064 -10.80669,-1.0597 l -6.84257,-0.10428 -1.72334,0.32293 c -2.95511,0.55374 -6.36131,2.02133 -8.63908,3.72224 -0.58063,0.43356 -1.47256,0.98097 -1.98205,1.21645 l -0.92638,0.42813 -9.79425,-0.0481 -9.79426,-0.0481 -0.46289,-0.3033 -0.4629,-0.30329 v -0.69319 c 0,-2.99481 6.94569,-12.04573 11.81103,-15.39092 0.6443,-0.44301 1.8459,-1.27472 2.67022,-1.84828 2.42789,-1.68933 7.59711,-3.97129 10.6909,-4.71953 3.84984,-0.93108 10.00102,-1.31065 19.32506,-1.19247 l 4.75694,0.0602 2.63248,0.39805 c 5.84394,0.88365 10.62189,2.59546 14.05866,5.03683 0.78612,0.55844 2.2046,1.55048 3.15217,2.20457 12.43002,8.57996 18.06848,26.36965 13.45589,42.45426 -3.71721,12.96235 -14.73187,22.77964 -28.67129,25.55452 l -1.65483,0.32942 -10.4058,0.0421 c -5.7232,0.0232 -10.85177,0.009 -11.39683,-0.0302 z M 73.620212,158.35764 c -0.621416,-0.15155 -1.735443,-0.56848 -2.475613,-0.92652 l -1.345766,-0.651 -1.307829,-1.28833 -1.30783,-1.28834 -0.625589,-1.28834 c -1.369625,-2.82061 -1.362641,-5.78325 0.02056,-8.72105 l 0.606582,-1.28835 1.212722,-1.21431 c 1.283324,-1.28501 2.886159,-2.21792 4.678227,-2.72289 l 1.079769,-0.30426 31.019215,-0.04 31.0192,-0.04 1.31805,0.42832 c 3.09952,1.00721 5.45281,3.35859 6.55286,6.5475 l 0.45185,1.30985 -0.02,2.08117 -0.02,2.08116 -0.4226,1.09013 c -0.98814,2.54896 -3.28685,4.77667 -6.07634,5.88863 l -1.38744,0.55306 -30.92011,0.0346 -30.920106,0.0346 z"
       id="path2" /></g></svg>
